<?xml version="1.0" encoding="UTF-8"?>
<svg id="DEVELOVER_STRONG" data-name="DEVELOVER STRONG" xmlns="http://www.w3.org/2000/svg" xmlns:xlink="http://www.w3.org/1999/xlink" viewBox="0 0 623.52 154.04">
  <defs>
    <style>
      .cls-1 {
        fill: #e7246b;
      }

      .cls-2 {
        fill: #e7256b;
      }

      .cls-3 {
        clip-path: url(#clippath);
      }

      .cls-4 {
        fill: none;
      }
    </style>
    <clipPath id="clippath">
      <rect class="cls-4" x="0" y="-5.76" width="121.96" height="159.8"/>
    </clipPath>
  </defs>
  <g id="STRONG">
    <g>
      <path class="cls-1" d="m120.45,119.64c.18.08.43.15.73.22s.64.11,1.01.11c.72,0,1.33-.17,1.82-.51.5-.34.75-.81.75-1.41,0-.36-.11-.67-.33-.91s-.49-.45-.83-.62c-.34-.17-.82-.38-1.46-.63-.93-.36-1.7-.72-2.31-1.07-.61-.35-1.14-.87-1.58-1.53s-.67-1.54-.67-2.61.23-1.96.7-2.72c.47-.76,1.11-1.33,1.92-1.71s1.74-.58,2.77-.58c.71,0,1.4.07,2.1.21.69.14,1.27.28,1.72.43.45.15.74.25.86.31l-.11,4.29h-1.95l-.53-2.01c-.06-.01-.18-.05-.36-.1-.19-.05-.42-.11-.69-.17s-.55-.09-.81-.09c-.72,0-1.28.16-1.67.47-.39.31-.59.72-.59,1.21s.21.91.64,1.19c.43.29,1.1.61,2.02.97.93.36,1.7.71,2.31,1.06.6.35,1.12.84,1.56,1.49.43.65.65,1.47.65,2.48,0,1.15-.25,2.14-.75,2.97-.5.83-1.18,1.45-2.04,1.88s-1.85.64-2.94.64c-.7,0-1.41-.07-2.11-.2-.7-.13-1.28-.27-1.75-.42s-.76-.24-.88-.28v-4.53h2.17l.32,1.98s.15.08.34.16Z"/>
      <path class="cls-1" d="m161.01,108.77h-2.2l-.58,2.22h-2.13v-5.04h13.39v5.04h-2.14l-.57-2.22h-2.2v11.01l2.2.71v1.99h-7.97v-1.99l2.2-.71v-11.01Z"/>
      <path class="cls-1" d="m198.95,119.86l1.61-.67v-10.47l-1.61-.67v-1.89l4.96-.11h1.63c1.8,0,3.18.38,4.15,1.15.97.76,1.46,1.9,1.46,3.4,0,1.01-.22,1.86-.65,2.56-.43.7-1.03,1.25-1.79,1.65.36.43.66.91.9,1.45l1.45,3.06,1.46.55v1.89h-3.99l-1.81-4.12c-.27-.64-.49-1.09-.65-1.35-.16-.26-.34-.44-.54-.54-.2-.1-.5-.15-.89-.15h-.75v3.6l1.55.67v1.89h-6.5v-1.89Zm8.16-7.23c.47-.41.71-.99.71-1.73,0-.64-.19-1.16-.58-1.57s-.91-.62-1.57-.62h-1.77v4.53h1.22c.85,0,1.51-.21,1.98-.61Z"/>
      <path class="cls-1" d="m257.88,106.97c1.49,1.66,2.23,3.98,2.23,6.97,0,1.97-.38,3.71-1.14,5.22-.76,1.51-1.82,2.68-3.2,3.52s-2.95,1.26-4.73,1.26c-2.71,0-4.78-.82-6.23-2.45-1.45-1.63-2.17-4.02-2.17-7.15,0-2.02.36-3.77,1.08-5.26.72-1.48,1.75-2.62,3.1-3.41,1.35-.79,2.93-1.18,4.75-1.18,2.71,0,4.82.83,6.3,2.49Zm-9.59,2.32c-.69.99-1.04,2.62-1.04,4.91s.32,3.82.95,4.85,1.62,1.55,2.98,1.55,2.48-.51,3.22-1.54c.74-1.02,1.1-2.69,1.1-5,0-2.17-.33-3.75-1-4.76-.67-1-1.69-1.5-3.06-1.5s-2.46.49-3.15,1.48Z"/>
      <path class="cls-1" d="m293.6,121.66l2.02-.81v-12.52l-2.02-.81v-2.26l6.49-.13,7.31,12.31v-9.11l-1.97-.81v-2.26l7.71-.13v2.39l-2.02.81v15.59h-4.52l-7.26-12.08v9l2.12.81v2.26h-7.85v-2.26Z"/>
      <path class="cls-1" d="m356.6,108.44c-.26-.07-.62-.13-1.08-.2s-.95-.09-1.47-.09c-1.48,0-2.6.54-3.37,1.62s-1.15,2.71-1.15,4.9c0,4.12,1.53,6.18,4.6,6.18.41,0,.84-.03,1.28-.1.44-.07.81-.14,1.11-.22.3-.08.49-.13.58-.14v-3.36l-2.04-.62v-2.17l7.8-.14v2.32l-1.84.62v5.43s-.34.21-1.03.52-1.58.6-2.66.87c-1.09.27-2.31.4-3.67.4-2.76,0-4.89-.8-6.4-2.41-1.51-1.61-2.26-3.95-2.26-7.02,0-2.06.37-3.85,1.12-5.35s1.81-2.65,3.18-3.45c1.37-.8,2.98-1.2,4.82-1.2.98,0,1.93.09,2.86.28.92.19,1.73.39,2.42.61.69.22,1.03.34,1.03.36l-.13,4.79h-2.52l-.67-2.29c-.07-.02-.24-.06-.5-.13Z"/>
    </g>
  </g>
  <g id="LOGO">
    <g class="cls-3">
      <polygon class="cls-2" points="34.58 129.22 108.52 93.54 108.52 64.16 10.18 19.12 10.18 127.28 29.22 48.5 93.64 77.88 34.58 129.22"/>
    </g>
  </g>
  <g id="DEVELOPER">
    <path class="cls-1" d="m119.17,50.19l-5.34-.13v-11.07l31.83-.35,5.17.8c8.38,1.9,10.81,3.79,15.51,8.28,3.26,3.11,6.9,9.24,6.9,12.94,0,6.3.09,14.22-1.95,18.88-2.04,4.66-3.4,7.39-6.41,10.36-3.19,3.14-10.4,6.13-15.44,6.13l-35.6.25v-11.23l5.21.13.13-34.98Zm29.62,30.89c2.01-3.15,3.45-5.28,3.45-12.55s.05-6.76-1.02-10.18c-1.28-4.09-5.18-7.15-7.68-7.15l-5.34.13-.11,33.7h6.21c2.55-.85,3.49-2.37,4.5-3.96Z"/>
    <path class="cls-1" d="m214.32,73.1l-14.04.04.13,12.89,7.96.09-.04-6.09,13.19.04v16.2h-45.28v-10.11l5.23.13-.04-35.06-5.19-.02.27-12.16,17.55-.11,27.52.33-.23,16.97-12.98-.17v-4.89l-7.96-.04-.04,10.98,14.04.04-.09,10.94Z"/>
    <path class="cls-1" d="m223.85,39.05l31.06.07-.03,11.06h-4.91l6.17,21.83,2.26,8.21,3.02-8.85,5.44-21.26-5.02.07.04-10.98,27.11-.09v11.02l-6,.04-15.23,46-21.79.04-16.17-46.13-5.96.13v-11.18Z"/>
    <path class="cls-1" d="m329,72.15l-13.96-.04-.04,13.02,7.87-.04.09-6.04,12.98.17v16.98l-45.11.04v-11.19l5.06.09.04-35.06-5.11.09.19-10.94,17.13-.16h27.79v16.18h-13.96l-.04-5.12-6.98.04-.09,10.85,14.17.04-.04,11.11Z"/>
    <path class="cls-1" d="m373.05,76.37l13.03-.26v20.11l-44.85.02-.25-11.28h4.94l-.09-34.72h-4.85v-11.18h28.85l.17,11.18-4.94-.09-.26,34.81,8,.13.24-8.72Z"/>
    <path class="cls-1" d="m438.5,44.34c4.91,4.34,10.15,12.42,10.47,21.96.35,10.47-1.41,13.82-4.21,18.77-2.59,4.58-7.18,7.47-10.98,10.15-3.8,2.68-9.23,3.35-14.15,3.35-7.47,0-14.54-1.94-18.98-6.8-4.72-5.17-9.09-10.98-9.06-24.57.02-9.26,2.68-12.57,5.49-16.98s6.86-8.09,10.91-10.05c2.8-1.36,8.21-2.14,13.22-2.14,7.5,0,12.27,1.87,17.3,6.32Zm-31.53,8.04c-2.11,3.02-5.17,7.45-5.17,16.21,0,9.43,3.69,12.85,5.43,16.15,1.74,3.3,7.09,5.36,12.48,5.36,7.06,0,11.4-3.11,13.44-6.38s5.05-6.15,4.47-16.53c-.39-6.92-2.5-10.86-4.33-14.06s-6.64-6.11-12.55-6.11c-7.05,0-10.94,1.32-13.75,5.36Z"/>
    <path class="cls-1" d="m460.85,89.9l5.81-.07.13-42.96-6-.06v-7.15l15.06.26,11.11-.45c3.16,0,8.26,1.79,11.49,4.98,3.22,3.19,4.79,5.94,4.79,11.49,0,11.19-4.05,13.3-6.51,15.19-3.06,2.36-5.23,2.87-15.49,2.62l-4.3.13-.19,15.89,7.91.03v6.93l-24,.13.19-6.95Zm29.87-25.54c1.68-1.65,1.91-4.39,1.91-7.53,0-2.83-.78-5.45-2.11-7.15-1.33-1.71-5.69-2.74-8.17-2.74h-5.49l.06,20.81h3.45c3.14,0,8.66-1.73,10.34-3.38Z"/>
    <path class="cls-1" d="m547.02,70.75h-15.96l-.06,18.95,14.74.06.13-8.04,7.85.06v15.06h-39l-.08-7.12,6.02.1.26-42.89h-6.19v-7.15l17.11.06,21.89-.38v15.45l-7.75-.2-.22-7.78h-14.62l-.06,16.79,15.83.06.13,6.96Z"/>
    <path class="cls-1" d="m566.74,89.92l6.06-.16.06-42.96-6.13.06v-7.09l13.6-.06h10.95c6.23.45,7.15,1.13,11.07,3.26,2.36,1.28,6.64,7.4,6.7,11.5.06,3.85-.8,7.09-2.25,9.8-2.73,5.12-7.29,5.51-9.94,7.04,1.24,1.64,3.55,4.4,4.4,6.45l7.6,11.94h6.96v7.09l-13.98.06-8.87-15.19c-.95-2.44-1.7-3.92-2.25-4.91s-1.11-2.58-1.81-2.97c-.69-.39-1.48-.92-2.84-.92l-3.19-.19.06,17.11,5.92-.04.08,7.13h-22.21s0-6.92,0-6.92Zm29.74-27.48c1.64-1.57,2.11-3.87,2.11-6.7,0-2.44-.88-4.66-2.74-6.38-1.51-1.4-3.49-2.03-5.65-2.46l-7.31.06-.06,19.79,5.41-.06c3.65.06,6.6-2.67,8.25-4.24Z"/>
  </g>
</svg>